<svg width="14" height="14" viewBox="0 0 14 14" fill="none" xmlns="http://www.w3.org/2000/svg">
<g clip-path="url(#clip0_332_246)">
<path d="M7.15131 0.690796C5.43788 0.690796 3.79462 1.37146 2.58304 2.58304C1.37146 3.79462 0.690796 5.43788 0.690796 7.15131C0.690796 8.86475 1.37146 10.508 2.58304 11.7196C3.79462 12.9312 5.43788 13.6118 7.15131 13.6118C8.86475 13.6118 10.508 12.9312 11.7196 11.7196C12.9312 10.508 13.6118 8.86475 13.6118 7.15131C13.6118 5.43788 12.9312 3.79462 11.7196 2.58304C10.508 1.37146 8.86475 0.690796 7.15131 0.690796ZM8.8542 12.4182H8.80413C8.76648 12.4208 8.72872 12.4154 8.69329 12.4024C8.65786 12.3894 8.62555 12.3692 8.59847 12.3429C8.57288 12.3164 8.55299 12.285 8.54003 12.2505C8.52706 12.2161 8.5213 12.1794 8.5231 12.1426V11.3856C8.52668 11.134 8.52848 10.8799 8.52848 10.6233C8.52755 10.4359 8.50018 10.2496 8.44718 10.0699C8.39699 9.88814 8.29572 9.72465 8.15538 9.59877C8.53064 9.56263 8.89953 9.47738 9.2526 9.3452C9.55045 9.23195 9.81985 9.05479 10.0419 8.8262C10.261 8.59631 10.4241 8.31851 10.5183 8.01541C10.6327 7.64415 10.6872 7.25706 10.6798 6.86867C10.6824 6.59743 10.6349 6.32805 10.5399 6.07402C10.4436 5.81791 10.2982 5.58308 10.1118 5.38275C10.1521 5.28175 10.1814 5.1767 10.1991 5.06941C10.217 4.96174 10.226 4.85334 10.226 4.74423C10.226 4.60354 10.2098 4.46481 10.1775 4.32807C10.1488 4.1882 10.109 4.05084 10.0585 3.91729C10.0395 3.90995 10.0192 3.9063 9.99879 3.90652H9.93956C9.81538 3.90795 9.69442 3.92787 9.5767 3.96628C9.44721 4.0034 9.3207 4.05019 9.19822 4.10626C9.0764 4.16145 8.95761 4.22309 8.84235 4.29092C8.72678 4.35947 8.62395 4.42444 8.53386 4.48581C7.62808 4.23398 6.67077 4.23398 5.76499 4.48581C5.66393 4.41837 5.56125 4.35339 5.45704 4.29092C5.34043 4.22202 5.21959 4.16052 5.09525 4.10679C4.97288 4.04945 4.84591 4.00245 4.7157 3.96628C4.60065 3.92824 4.48045 3.90809 4.35929 3.90652H4.30007C4.27983 3.90636 4.25974 3.91002 4.24085 3.91729C4.19052 4.05132 4.14915 4.18855 4.11702 4.32807C4.08831 4.46517 4.07377 4.60389 4.07341 4.74423C4.07341 4.85334 4.08257 4.96174 4.10087 5.06941C4.11918 5.17709 4.14789 5.28153 4.18701 5.38275C4.00118 5.58338 3.85634 5.81839 3.76062 6.07456C3.66498 6.32849 3.61698 6.59787 3.61903 6.8692C3.61175 7.25552 3.66479 7.6406 3.77623 8.01056C3.87368 8.31367 4.03627 8.59201 4.25216 8.82674C4.47558 9.05394 4.74477 9.23052 5.04142 9.34573C5.39298 9.48033 5.76122 9.56647 6.13593 9.602C6.03095 9.69651 5.9479 9.81282 5.89259 9.94279C5.83963 10.0711 5.80344 10.2058 5.78491 10.3433C5.5874 10.438 5.37134 10.4876 5.15232 10.4887C4.94898 10.4964 4.74838 10.4399 4.57895 10.3272C4.41656 10.2069 4.27906 10.0563 4.17409 9.88357C4.12728 9.81092 4.07471 9.74215 4.01689 9.67791C3.95605 9.61023 3.889 9.5484 3.81661 9.49325C3.74539 9.43969 3.66713 9.39621 3.58403 9.36404C3.50239 9.32824 3.41422 9.30973 3.32507 9.30966C3.30354 9.31038 3.282 9.31218 3.26047 9.31505C3.23107 9.31522 3.2018 9.31884 3.17325 9.32581C3.14817 9.33229 3.12446 9.34323 3.10326 9.35812C3.09374 9.3636 3.08578 9.37143 3.08013 9.38085C3.07448 9.39027 3.07132 9.40097 3.07096 9.41195C3.07322 9.43786 3.08114 9.46296 3.09417 9.48547C3.10719 9.50799 3.125 9.52737 3.14633 9.54224C3.19658 9.58208 3.23821 9.61277 3.27123 9.6343L3.28739 9.64561C3.35917 9.70124 3.42772 9.761 3.49304 9.82489C3.5537 9.87801 3.60754 9.93723 3.65456 10.0026C3.70337 10.0664 3.74483 10.1348 3.77892 10.2077C3.8184 10.2795 3.85986 10.3625 3.90329 10.4569C4.0045 10.7121 4.18432 10.928 4.4169 11.0734C4.66078 11.2042 4.93428 11.2694 5.21154 11.2624C5.30558 11.2624 5.39926 11.257 5.49257 11.2462C5.58518 11.2315 5.6776 11.2152 5.76984 11.1972V12.1356C5.77151 12.1734 5.76519 12.2112 5.75127 12.2464C5.73736 12.2816 5.71616 12.3135 5.68908 12.34C5.662 12.3665 5.62963 12.3869 5.5941 12.4001C5.55857 12.4132 5.52067 12.4186 5.48288 12.4161H5.4495C4.19403 12.0105 3.12461 11.17 2.43383 10.046C1.74304 8.92189 1.47627 7.58813 1.68156 6.28484C1.88685 4.98155 2.55071 3.79438 3.5536 2.9371C4.55648 2.07982 5.83249 1.60877 7.15185 1.60877C8.47121 1.60877 9.74722 2.07982 10.7501 2.9371C11.753 3.79438 12.4169 4.98155 12.6221 6.28484C12.8274 7.58813 12.5607 8.92189 11.8699 10.046C11.1791 11.17 10.1097 12.0105 8.8542 12.4161V12.4182Z" fill="white"/>
</g>
<defs>
<clipPath id="clip0_332_246">
<rect width="12.921" height="12.921" fill="white" transform="translate(0.690796 0.690796)"/>
</clipPath>
</defs>
</svg>
