<svg width="22" height="16" viewBox="0 0 22 16" fill="none" xmlns="http://www.w3.org/2000/svg">
<path d="M0.76 1.91018C0.76 1.6506 0.863118 1.40165 1.04667 1.2181C1.23022 1.03454 1.47917 0.931427 1.73875 0.931427H15.4412C15.7008 0.931427 15.9498 1.03454 16.1333 1.2181C16.3169 1.40165 16.42 1.6506 16.42 1.91018C16.42 2.16976 16.3169 2.41871 16.1333 2.60226C15.9498 2.78581 15.7008 2.88893 15.4412 2.88893H1.73875C1.47917 2.88893 1.23022 2.78581 1.04667 2.60226C0.863118 2.41871 0.76 2.16976 0.76 1.91018ZM0.76 14.9602C0.76 14.7006 0.863118 14.4516 1.04667 14.2681C1.23022 14.0845 1.47917 13.9814 1.73875 13.9814H14.1362C14.3958 13.9814 14.6448 14.0845 14.8283 14.2681C15.0119 14.4516 15.115 14.7006 15.115 14.9602C15.115 15.2198 15.0119 15.4687 14.8283 15.6523C14.6448 15.8358 14.3958 15.9389 14.1362 15.9389H1.73875C1.47917 15.9389 1.23022 15.8358 1.04667 15.6523C0.863118 15.4687 0.76 15.2198 0.76 14.9602ZM1.73875 7.45643C1.47917 7.45643 1.23022 7.55955 1.04667 7.7431C0.863118 7.92665 0.76 8.1756 0.76 8.43518C0.76 8.69476 0.863118 8.94371 1.04667 9.12726C1.23022 9.31081 1.47917 9.41393 1.73875 9.41393H20.6612C20.9208 9.41393 21.1698 9.31081 21.3533 9.12726C21.5369 8.94371 21.64 8.69476 21.64 8.43518C21.64 8.1756 21.5369 7.92665 21.3533 7.7431C21.1698 7.55955 20.9208 7.45643 20.6612 7.45643H1.73875Z" fill="white"/>
</svg>
