<svg width="14" height="14" viewBox="0 0 14 14" fill="none" xmlns="http://www.w3.org/2000/svg">
<path d="M4.0326 3.65182C4.03245 3.93739 3.91887 4.21121 3.71684 4.41304C3.51481 4.61487 3.24088 4.72817 2.9553 4.72803C2.66973 4.72789 2.39591 4.61431 2.19408 4.41228C1.99225 4.21024 1.87895 3.93631 1.87909 3.65074C1.87923 3.36517 1.99281 3.09135 2.19484 2.88952C2.39688 2.68769 2.67081 2.57438 2.95638 2.57452C3.24195 2.57467 3.51577 2.68825 3.7176 2.89028C3.91943 3.09231 4.03274 3.36624 4.0326 3.65182ZM4.0649 5.52537H1.91139V12.2658H4.0649V5.52537ZM7.46744 5.52537H5.3247V12.2658H7.4459V8.72871C7.4459 6.75825 10.014 6.5752 10.014 8.72871V12.2658H12.1405V7.99651C12.1405 4.67473 8.33961 4.79856 7.4459 6.42984L7.46744 5.52537Z" fill="white"/>
</svg>
