<svg width="13" height="13" viewBox="0 0 15 14" fill="none" xmlns="http://www.w3.org/2000/svg">
<path d="M2.95519 0.260513H12.0989V13.2631H10.7567V7.30705H10.7436C10.5952 5.66095 9.21178 4.37099 7.52706 4.37099C5.84233 4.37099 4.4589 5.66095 4.31056 7.30705H4.29739V13.2631H2.95519V0.260513Z" fill="white"/>
<path d="M0.522461 2.10604L1.06773 3.95156H1.52911V11.4175C1.29746 11.4175 1.10967 11.6053 1.10967 11.837V12.3403H1.02579C0.794137 12.3403 0.606348 12.5281 0.606348 12.7597V13.2631H5.30404V12.7597C5.30404 12.5281 5.11625 12.3403 4.8846 12.3403H4.80072V11.837C4.80072 11.6053 4.61293 11.4175 4.38128 11.4175H3.87796V2.10604H0.522461Z" fill="white"/>
<path d="M10.8406 11.4175C10.609 11.4175 10.4212 11.6053 10.4212 11.837V12.3403H10.3373C10.1056 12.3403 9.91785 12.5281 9.91785 12.7597V13.2631H14.6155V12.7597C14.6155 12.5281 14.4278 12.3403 14.1961 12.3403H14.1122V11.837C14.1122 11.6053 13.9244 11.4175 13.6928 11.4175V3.95156H14.1542L14.6994 2.10604H11.3439V11.4175H10.8406Z" fill="white"/>
</svg>
